<?xml version="1.0" encoding="UTF-8"?><svg id="rond-V1" xmlns="http://www.w3.org/2000/svg" viewBox="0 0 441.28 441.28"><defs><style>.cls-1{fill:#1d1d1b;}</style></defs><path class="cls-1" d="M184.81,273.43l-16.09-2.5c-2.46-.38-4.77,1.3-5.15,3.76l-2.12,13.2c-.65,4.16-6.14,5.24-8.32,1.63l-16.04-26.62c-.69-1.14-1.85-1.92-3.17-2.13l-14.55-2.26c-2.46-.38-4.77,1.3-5.15,3.76l-10.45,67.17c-.38,2.46,1.3,4.77,3.76,5.15l16.09,2.5c2.46,.38,4.77-1.3,5.15-3.76l2.77-17.84c.65-4.16,6.14-5.24,8.32-1.63l16.04,26.62c.69,1.14,1.85,1.92,3.17,2.13l14.55,2.26c2.46,.38,4.77-1.3,5.15-3.76l9.79-62.53c.38-2.46-1.3-4.77-3.76-5.15Z"/><path class="cls-1" d="M252.51,335.34h-24.48c-2.5,0-4.51-2.02-4.51-4.51v-1.1c0-2.49,2.01-4.51,4.51-4.51h13.54c2.49,0,4.51-2.02,4.51-4.51v-9.68c0-2.49-2.02-4.51-4.51-4.51h-13.54c-1.25,0-2.38-.51-3.19-1.32-.82-.82-1.32-1.95-1.32-3.19,0-2.49,2.01-4.51,4.51-4.51h23.05c2.49,0,4.51-2.02,4.51-4.51v-10.56c0-2.49-2.02-4.51-4.51-4.51h-21.33l3.22-4.65c2.74-3.25-.12-8.13-4.29-7.34l-8.66,1.64c-1.32,.25-2.47,1.08-3.11,2.26l-4.13,8.09h-10.28c-2.49,0-4.5,2.02-4.5,4.51v67.98c0,2.49,2.01,4.51,4.5,4.51h50.01c2.49,0,4.51-2.02,4.51-4.51v-10.56c0-2.49-2.02-4.51-4.51-4.51Z"/><path class="cls-1" d="M324.96,320.36l-24.39,2.08c-2.48,.21-4.67-1.63-4.88-4.11l-.09-1.1c-.21-2.48,1.63-4.67,4.11-4.88l13.49-1.15c2.48-.21,4.32-2.4,4.11-4.88l-.82-9.65c-.21-2.48-2.4-4.32-4.88-4.11l-13.49,1.15c-2.48,.21-4.67-1.63-4.88-4.11-.21-2.48,1.63-4.67,4.11-4.88l22.97-1.96c2.48-.21,4.32-2.4,4.11-4.88l-.9-10.52c-.21-2.48-2.4-4.32-4.88-4.11-11.42,.98-22.95,2.54-34.39,2.85-3.91,.11-8.21,2.03-11.81,3.52-1.68,.7-3.41,1.51-4.5,2.96-2.18,2.87-1.17,6.96-.89,10.25,.23,2.69,.46,5.39,.69,8.08,.54,6.3,1.08,12.59,1.61,18.89,.82,9.64,1.65,19.27,2.47,28.91,.04,.43,.07,.86,.11,1.29,.21,2.48,2.4,4.32,4.88,4.11l49.82-4.26c2.48-.21,4.32-2.4,4.11-4.88l-.9-10.52c-.21-2.48-2.4-4.32-4.88-4.11Z"/><path class="cls-1" d="M212.35,171.94c.48,.17,1.01,.26,1.56,.26h15.32c.33,0,.65-.03,.96-.1,1.66-.33,3.04-1.54,3.59-3.2l1.69-5.18c.64-1.96,2.47-3.29,4.53-3.29h10.91c3.27,0,8.54-1.51,11.37,.8,1.29,1.05,1.89,3.21,2.89,4.55,1.16,1.55,2.62,2.9,4.46,3.57,2.69,.99,5.69,.37,8.45-.43,4.68-1.36,10.93-2.96,10.97-9.03,0-.56-.12-1.11-.32-1.63l-23.87-60.8c-.68-1.89-2.48-3.14-4.49-3.14h-21.47c-2.01,0-3.8,1.25-4.49,3.14l-24.99,68.31c-.95,2.6,.5,5.34,2.93,6.17Zm32.17-36.15l.46-1.4c1.43-4.4,7.66-4.4,9.1,0l.45,1.4c1.01,3.1-1.3,6.27-4.55,6.27h-.91c-3.25,0-5.55-3.17-4.55-6.27Z"/><path class="cls-1" d="M210.66,233.5c2.52-5.43,3.66-11.39,3.66-17.37,0-6.7-1.56-14.43-5.06-20.73-2.68-4.83-6.5-8.83-11.62-10.9-2.6-1.05-5.37-1.63-8.11-2.2-4.28-.9-8.56-1.79-12.85-2.68-4.18-.87-8.42-1.75-12.69-1.59-10.55,.41-19.29,8.92-24.36,17.54-3.59,6.09-5.39,12.95-5.39,20.57,0,5.46,.96,10.91,3.07,15.95,.97,2.32,2.39,4.21,3.56,6.37,3.04,5.65,6.66,11.33,12.8,13.98,1.62,.7,3.32,1.16,5.02,1.62,2.65,.72,5.32,1.44,8.04,1.81,3.78,.51,7.62,.33,11.4-.11,4.47-.52,8.93-1.41,13.11-3.07,8.72-3.47,15.5-10.74,19.41-19.18Zm-25.05-4.77c-2.64,3.11-6.38,4.67-11.22,4.67s-8.69-1.56-11.33-4.67c-2.64-3.12-3.96-7.32-3.96-12.6s1.32-9.59,3.96-12.7c2.64-3.12,6.42-4.68,11.33-4.68s8.58,1.56,11.22,4.68c2.64,3.11,3.96,7.35,3.96,12.7s-1.32,9.48-3.96,12.6Z"/><path class="cls-1" d="M158.29,163.67l35.62,4.13c2.47,.29,4.71-1.49,5-3.96l1.28-11.04c.29-2.47-1.49-4.71-3.96-5l-16.63-1.93c-2.47-.29-4.25-2.52-3.96-5l5.51-47.53c.29-2.47-1.49-4.71-3.96-5l-16.83-1.95c-2.47-.29-4.71,1.49-5,3.96l-7.04,60.73c-.72,6.23,3.74,11.86,9.97,12.58Z"/><path class="cls-1" d="M372.53,234.38l-9.78-12.01c-1.54-1.9-4.8-5.04-2.94-6.63,2.71-2.31,4.83-5.01,6.35-8.08,2.13-4.31,2.96-9.2,2.49-14.68-.5-5.84-2.37-10.84-5.6-14.97-3.23-4.14-7.57-7.15-13.03-9.03-5.46-1.88-8.23-2.16-15.32-1.55-8.06,.7-14.16-.39-22.03,2.27-7.85,2.65-10.4,12.52-9.14,20.16l1.31,32.58c.29,3.33,.58,6.67,.86,10,.28,3.25,.56,6.51,.84,9.76,.21,2.48,2.4,4.32,4.88,4.11l14.34-.83c2.48-.21,4.32-2.4,4.11-4.88l-.89-10.3c-.21-2.48,1.62-4.67,4.11-4.88h.13c1.49-.14,2.95,.48,3.89,1.64l11.69,14.44c.94,1.16,2.4,1.78,3.89,1.65l16.74-1.44c3.61-.31,5.4-4.53,3.11-7.34Zm-31.79-33.95c-1.07,1.14-2.76,1.81-5.08,2.01l-4.77,.28c-1.64,.14-3.09-1.07-3.23-2.71l-.51-5.94c-.14-1.64,1.07-3.09,2.71-3.23l4.77-.28c2.32-.2,4.1,.17,5.35,1.11,1.25,.94,1.96,2.35,2.12,4.23,.16,1.88-.29,3.4-1.36,4.53Z"/><path class="cls-1" d="M291.89,229.86l4.04-36.04c.27-2.37-1.44-4.51-3.81-4.78l-15.71-1.76c-2.37-.27-4.51,1.44-4.78,3.81l-3.95,35.3c-.6,5.38-2,9.18-4.2,11.41-2.2,2.23-5.11,3.14-8.74,2.73-3.63-.41-6.27-1.94-7.92-4.6-1.65-2.66-2.17-6.68-1.57-12.06l3.95-35.3c.27-2.37-1.44-4.51-3.81-4.78l-16.13-1.81c-2.37-.27-4.51,1.44-4.78,3.81l-4.04,36.04c-1.23,10.97,.96,19.84,6.56,26.62,5.61,6.78,14.03,10.8,25.27,12.06,11.24,1.26,20.35-.8,27.32-6.17,6.97-5.37,11.06-13.54,12.29-24.51Z"/><path class="cls-1" d="M105.18,247.72l16.76-2.49c2.46-.37,4.16-2.66,3.8-5.12l-7.02-47.33c-.37-2.46,1.34-4.76,3.8-5.12l13.38-1.99c2.46-.37,4.16-2.66,3.8-5.12l-1.63-10.99c-.37-2.46-2.66-4.16-5.12-3.8l-61.37,9.11c-2.46,.37-4.16,2.66-3.8,5.12l1.63,10.99c.37,2.46,2.66,4.16,5.12,3.8l13.38-1.99c2.46-.37,4.76,1.33,5.12,3.8l7.02,47.33c.37,2.46,2.66,4.16,5.12,3.8Z"/></svg>